# xmcd
#
# Track frame offsets: 
#        150
#        10532
#        21282
#        34415
#        45335
#        60160
#        72150
#        82835
#        95792
#        108720
#        123252
#        136225
#
# Disc length: 1986 seconds
#
# Revision: 2
# Processed by: cddbd v1.5.2PL0 Copyright (c) Steve Scherf et al.
# Submitted via: ExactAudioCopy v1.0b3
#
DISCID=9107c00c
DTITLE=Carl Und Pearl Butler - Crying My Heart Out Over You
DYEAR=1900
DGENRE=
TTITLE0=Cryin' My Heart Out Over You
TTITLE1=Fools Like Me
TTITLE2=Garden Of Shame
TTITLE3=Dog Eat Dog
TTITLE4=If Teardrops Were Pennies
TTITLE5=Holding On With Open Arms
TTITLE6=Take Me Back To Jackson
TTITLE7=Don't Let Me Cross Over
TTITLE8=Blue Eyes And Waltzes
TTITLE9=My Joy
TTITLE10=Precious Memories
TTITLE11=I Hope We Walk The Last Mile  Together
EXTD=
EXTT0=
EXTT1=
EXTT2=
EXTT3=
EXTT4=
EXTT5=
EXTT6=
EXTT7=
EXTT8=
EXTT9=
EXTT10=
EXTT11=
PLAYORDER=
